#!OML:ASF E:\id_vita\Project 1\Capture day 1\Session 1\Male1.ASF
:FULLY-SPECIFIED
:DEGREES
1169
root -25.6115 16.0796 -1.42032 440.162 94.6868 432.307
lowerback -2.19111 -4.30002 1.15791
upperback 1.03282 -5.80993 5.13822
thorax 2.71439 -2.89636 4.38409
lowerneck -0.399664 -5.02914 -4.01609
upperneck -1.26174 -6.68591 1.23211
head -0.141719 -3.32756 1.02703
rclavicle 3.97569e-015 3.18055e-015
rhumerus -30.8898 -11.6163 -78.3381
rradius 17.0822
rwrist 11.2776
rhand -20.505 35.7812
rfingers 7.12502
rthumb 5.85231 5.88203
lclavicle 3.97569e-015 3.18055e-015
lhumerus -26.2092 8.74499 88.766
lradius 15.5241
lwrist -6.11183
lhand -13.7702 43.7377
lfingers 7.12502
lthumb 12.3506 73.3529
rfemur -19.9053 1.96383 26.5729
rtibia 23.9972
rfoot -10.3405 -7.20974
rtoes -3.47206
lfemur -0.0233256 1.85925 -13.5817
ltibia 47.1782
lfoot 5.68501 -5.78406
ltoes 26.8839
1170
root -25.5293 16.0925 -1.38298 435.157 94.7834 427.208
lowerback -2.08753 -4.23472 0.926738
upperback 0.942178 -5.70867 5.14409
thorax 2.57863 -2.84979 4.53563
lowerneck -0.423409 -5.16294 -3.94248
upperneck -1.14387 -6.86355 1.21657
head -0.100085 -3.41795 1.00593
rclavicle -3.22031e-014 3.18055e-014
rhumerus -30.3033 -10.7151 -78.9414
rradius 17.61
rwrist 10.5868
rhand -20.6952 35.691
rfingers 7.12502
rthumb 5.66859 5.7868
lclavicle -3.22031e-014 3.18055e-014
lhumerus -26.2655 9.77132 88.1036
lradius 15.4441
lwrist -6.44088
lhand -13.4601 43.4773
lfingers 7.12502
lthumb 12.6497 73.0743
rfemur -19.5173 1.58529 26.7223
rtibia 23.7449
rfoot -10.4152 -7.44606
rtoes -4.4196
lfemur -1.5494 1.88197 -13.4315
ltibia 48.938
lfoot 4.69352 -5.29413
ltoes 27.0804
1171
root -25.427 16.1059 -1.35379 432.146 94.4462 424.283
lowerback -2.18284 -3.81736 0.645485
upperback 0.994017 -5.15167 4.69755
thorax 2.62543 -2.57716 4.24785
lowerneck -0.195516 -5.4741 -3.29018
upperneck -1.3994 -7.28846 1.37282
head -0.222434 -3.63291 0.956405
rclavicle 7.2457e-014 -3.97569e-014
rhumerus -30.0727 -11.5467 -79.2581
rradius 18.1516
rwrist 10.786
rhand -20.6355 35.5575
rfingers 7.12502
rthumb 5.72627 5.65489
lclavicle 7.2457e-014 -3.97569e-014
lhumerus -26.2222 9.79309 87.3648
lradius 15.2295
lwrist -6.67192
lhand -12.9429 42.8656
lfingers 7.12502
lthumb 13.1482 72.431
rfemur -18.8309 1.43546 26.4078
rtibia 23.4449
rfoot -10.7908 -7.44502
rtoes -3.76926
lfemur -2.68059 2.00119 -13.8408
ltibia 50.5077
lfoot 3.98933 -5.08454
ltoes 28.1426
1172
root -25.3369 16.1173 -1.3395 424.531 94.5013 416.841
lowerback -2.09766 -4.05503 0.587197
upperback 1.06684 -5.46814 4.67385
thorax 2.67897 -2.73751 4.24223
lowerneck -0.185843 -5.20256 -3.77415
upperneck -1.5511 -6.92563 1.41958
head -0.260906 -3.44738 1.05572
rclavicle -4.12478e-014 -2.14687e-014
rhumerus -29.2392 -10.453 -79.7432
rradius 18.4248
rwrist 10.6776
rhand -20.5243 35.6718
rfingers 7.12502
rthumb 5.83367 5.77207
lclavicle -4.12478e-014 -2.14687e-014
lhumerus -26.3334 11.4309 86.5976
lradius 15.1239
lwrist -6.94015
lhand -12.2586 42.8467
lfingers 7.12502
lthumb 13.8078 72.3684
rfemur -18.1188 0.74186 26.2792
rtibia 23.1642
rfoot -11.2016 -7.29883
rtoes -2.2944
lfemur -3.87888 1.70958 -14.0867
ltibia 52.0052
lfoot 3.26959 -4.75725
ltoes 29.0529
1173
root -25.2556 16.1211 -1.31324 425.349 94.7214 417.76
lowerback -2.19494 -3.91903 0.906852
upperback 1.23754 -5.30358 4.57321
thorax 2.85872 -2.64899 3.95546
lowerneck -0.217887 -5.35051 -3.44305
upperneck -1.53926 -7.12205 1.40192
head -0.259066 -3.54759 0.993402
rclavicle 3.05134e-014 1.27222e-014
rhumerus -28.4969 -9.88628 -80.3477
rradius 18.8395
rwrist 10.2298
rhand -20.8514 35.7583
rfingers 7.12502
rthumb 5.5178 5.85015
lclavicle 3.05134e-014 1.27222e-014
lhumerus -26.232 11.9875 85.9092
lradius 15.0826
lwrist -6.74319
lhand -11.6127 43.1807
lfingers 7.12502
lthumb 14.4302 72.659
rfemur -17.443 0.336773 26.6802
rtibia 22.6944
rfoot -11.4207 -7.01691
rtoes -1.62713
lfemur -5.14306 2.01562 -13.7837
ltibia 53.4541
lfoot 2.59724 -4.78643
ltoes 28.9936
